<svg xmlns="http://www.w3.org/2000/svg" width="512" height="512" viewBox="0 0 512 512" role="img" aria-label="Cyber Runner">
  <defs>
    <linearGradient id="bg" x1="0" y1="0" x2="1" y2="1">
      <stop offset="0" stop-color="#0a0e27"/>
      <stop offset="1" stop-color="#1a1a3e"/>
    </linearGradient>
    <filter id="glow" x="-30%" y="-30%" width="160%" height="160%">
      <feGaussianBlur stdDeviation="8" result="b"/>
      <feMerge><feMergeNode in="b"/><feMergeNode in="SourceGraphic"/></feMerge>
    </filter>
  </defs>
  <rect width="512" height="512" rx="96" fill="url(#bg)"/>
  <g stroke="#00ff88" stroke-opacity="0.12" stroke-width="2">
    <path d="M0 128 H512 M0 256 H512 M0 384 H512 M128 0 V512 M256 0 V512 M384 0 V512"/>
  </g>
  <g filter="url(#glow)">
    <rect x="196" y="196" width="120" height="120" rx="16" fill="#00ff88"/>
    <rect x="196" y="196" width="120" height="120" rx="16" fill="none" stroke="#00ffff" stroke-width="8"/>
    <rect x="224" y="232" width="22" height="22" fill="#0a0e27"/>
    <rect x="266" y="232" width="22" height="22" fill="#0a0e27"/>
  </g>
  <g fill="#ff0088" filter="url(#glow)">
    <rect x="92" y="86" width="40" height="40" rx="6"/>
    <rect x="380" y="120" width="34" height="34" rx="6"/>
    <circle cx="412" cy="396" r="18" fill="#ffe066"/>
  </g>
</svg>
